<svg width="13" height="13" viewBox="0 0 13 13" fill="none" xmlns="http://www.w3.org/2000/svg">
<g clip-path="url(#clip0_17_43)">
<path d="M10.5806 9.593C10.6566 9.51659 10.7099 9.42066 10.7346 9.31582C10.7594 9.21098 10.7546 9.10133 10.7209 8.99903L9.45868 5.21247L11.1086 3.56255C11.4455 3.22561 11.6348 2.76862 11.6348 2.29212C11.6348 1.81561 11.4455 1.35862 11.1086 1.02168C10.7717 0.684744 10.3147 0.495453 9.83816 0.495453C9.36166 0.495453 8.90467 0.684744 8.56773 1.02168L6.91781 2.6716L3.13126 1.40941C3.02895 1.37567 2.91931 1.37091 2.81447 1.39566C2.70963 1.42042 2.61369 1.47372 2.53729 1.54966L1.16373 2.92321C1.09597 2.98985 1.04552 3.07203 1.01677 3.16261C0.988014 3.25319 0.981824 3.34942 0.998739 3.44294C1.01602 3.53545 1.05544 3.62241 1.11362 3.69639C1.1718 3.77037 1.24701 3.82918 1.33285 3.86779L4.35219 5.23722L2.81365 6.77577L1.81545 6.27254C1.70585 6.21829 1.58197 6.19985 1.46132 6.21983C1.34067 6.23982 1.22936 6.29721 1.14311 6.38391L0.132532 7.39448C0.0781849 7.44929 0.0352524 7.51433 0.00622269 7.58584C-0.0228071 7.65735 -0.0373568 7.73391 -0.036584 7.81109C-0.0359585 7.96412 0.0247785 8.11078 0.132533 8.21944L3.91496 12.0019C4.02436 12.1113 4.17273 12.1727 4.32744 12.1727C4.48215 12.1727 4.63053 12.1113 4.73992 12.0019L5.77112 10.9707C5.85782 10.8844 5.91521 10.7731 5.9352 10.6525C5.95518 10.5318 5.93674 10.4079 5.88249 10.2983L5.35452 9.31664L6.88894 7.78221L8.25837 10.8016C8.29698 10.8874 8.35578 10.9626 8.42976 11.0208C8.50374 11.079 8.59071 11.1184 8.68322 11.1357C8.77674 11.1526 8.87297 11.1464 8.96355 11.1176C9.05413 11.0889 9.13631 11.0384 9.20294 10.9707L10.5806 9.593ZM7.60665 6.53653C7.56819 6.44942 7.50898 6.37305 7.4342 6.31409C7.35943 6.25513 7.27135 6.21538 7.17767 6.19829C7.08513 6.18156 6.98991 6.18745 6.90013 6.21546C6.81036 6.24347 6.72868 6.29277 6.66207 6.35916L4.2532 8.76804C4.16628 8.85509 4.1091 8.96738 4.08984 9.08888C4.07058 9.21037 4.09022 9.33484 4.14595 9.44451L4.64505 10.4386L4.32332 10.7603L1.36584 7.80284L1.68758 7.4811L2.68165 7.98021C2.79131 8.03594 2.91579 8.05558 3.03728 8.03632C3.15878 8.01705 3.27107 7.95988 3.35812 7.87296L5.76699 5.46408C5.83339 5.39747 5.88269 5.3158 5.9107 5.22602C5.93871 5.13625 5.9446 5.04103 5.92786 4.94848C5.91078 4.8548 5.87102 4.76673 5.81207 4.69195C5.75311 4.61718 5.67674 4.55797 5.58963 4.51951L2.57441 3.1542L3.10238 2.62623L6.88481 3.88429C6.98731 3.91938 7.09756 3.92523 7.2032 3.90119C7.30883 3.87715 7.40569 3.82416 7.48291 3.74817L9.37619 1.85489C9.49433 1.73674 9.65458 1.67037 9.82166 1.67037C9.98875 1.67037 10.149 1.73674 10.2671 1.85489C10.3853 1.97304 10.4517 2.13328 10.4517 2.30037C10.4517 2.46746 10.3853 2.6277 10.2671 2.74585L8.37386 4.63912C8.29787 4.71634 8.24489 4.8132 8.22084 4.91884C8.1968 5.02447 8.20265 5.13472 8.23774 5.23722L9.4958 9.01965L8.97196 9.5435L7.60665 6.53653Z" fill="#606060"/>
</g>
<defs>
<clipPath id="clip0_17_43">
<rect width="13" height="13" fill="white"/>
</clipPath>
</defs>
</svg>
