<svg width="19" height="19" viewBox="0 0 19 19" fill="none" xmlns="http://www.w3.org/2000/svg">
<path d="M14.2964 7.00988L14.9789 6.33488C15.1202 6.19366 15.1995 6.00211 15.1995 5.80238C15.1995 5.60266 15.1202 5.41111 14.9789 5.26988C14.8377 5.12866 14.6462 5.04931 14.4464 5.04931C14.2467 5.04931 14.0552 5.12866 13.9139 5.26988L13.2389 5.95238C12.1879 5.13927 10.8966 4.69811 9.5677 4.69811C8.23881 4.69811 6.94753 5.13927 5.89645 5.95238L5.21395 5.26238C5.07172 5.12116 4.87922 5.04221 4.67879 5.04291C4.47836 5.04362 4.28642 5.12391 4.1452 5.26613C4.00397 5.40836 3.92502 5.60086 3.92573 5.80128C3.92643 6.00171 4.00672 6.19366 4.14895 6.33488L4.83895 7.01738C4.01621 8.06554 3.56979 9.35989 3.57145 10.6924C3.569 11.649 3.79529 12.5922 4.23146 13.4436C4.66763 14.2949 5.30103 15.0296 6.07884 15.5865C6.85664 16.1433 7.75631 16.5061 8.7028 16.6445C9.6493 16.783 10.6152 16.6932 11.5199 16.3826C12.4246 16.0719 13.242 15.5495 13.9038 14.8588C14.5656 14.1681 15.0526 13.3291 15.3243 12.412C15.596 11.4948 15.6445 10.526 15.4657 9.58624C15.2869 8.64653 14.886 7.76319 14.2964 7.00988V7.00988ZM9.57145 15.1924C8.68143 15.1924 7.8114 14.9285 7.07138 14.434C6.33136 13.9395 5.75458 13.2367 5.41399 12.4145C5.07339 11.5922 4.98428 10.6874 5.15791 9.81448C5.33155 8.94156 5.76013 8.13974 6.38947 7.5104C7.0188 6.88107 7.82063 6.45248 8.69354 6.27885C9.56645 6.10522 10.4713 6.19433 11.2935 6.53492C12.1158 6.87552 12.8186 7.4523 13.3131 8.19232C13.8075 8.93234 14.0714 9.80237 14.0714 10.6924C14.0714 11.8859 13.5973 13.0305 12.7534 13.8744C11.9095 14.7183 10.7649 15.1924 9.57145 15.1924ZM8.07145 3.94238H11.0714C11.2704 3.94238 11.4611 3.86337 11.6018 3.72271C11.7424 3.58206 11.8214 3.3913 11.8214 3.19238C11.8214 2.99347 11.7424 2.8027 11.6018 2.66205C11.4611 2.5214 11.2704 2.44238 11.0714 2.44238H8.07145C7.87253 2.44238 7.68177 2.5214 7.54112 2.66205C7.40046 2.8027 7.32145 2.99347 7.32145 3.19238C7.32145 3.3913 7.40046 3.58206 7.54112 3.72271C7.68177 3.86337 7.87253 3.94238 8.07145 3.94238V3.94238ZM10.3214 8.44238C10.3214 8.24347 10.2424 8.05271 10.1018 7.91205C9.96112 7.7714 9.77036 7.69238 9.57145 7.69238C9.37253 7.69238 9.18177 7.7714 9.04112 7.91205C8.90046 8.05271 8.82145 8.24347 8.82145 8.44238V9.85988C8.65162 10.0118 8.53192 10.2117 8.47819 10.4331C8.42445 10.6545 8.4392 10.887 8.5205 11.0998C8.6018 11.3127 8.74581 11.4958 8.93347 11.625C9.12113 11.7542 9.34361 11.8234 9.57145 11.8234C9.79929 11.8234 10.0218 11.7542 10.2094 11.625C10.3971 11.4958 10.5411 11.3127 10.6224 11.0998C10.7037 10.887 10.7184 10.6545 10.6647 10.4331C10.611 10.2117 10.4913 10.0118 10.3214 9.85988V8.44238Z" fill="#28D697"/>
</svg>
